<svg xmlns="http://www.w3.org/2000/svg" xmlns:xlink="http://www.w3.org/1999/xlink" width="100" zoomAndPan="magnify" viewBox="0 0 75 74.999997" height="100" preserveAspectRatio="xMidYMid meet" version="1.0"><defs><clipPath id="bc922e9328"><path d="M 11.046875 34 L 64.296875 34 L 64.296875 75 L 11.046875 75 Z M 11.046875 34 " clip-rule="nonzero"/></clipPath></defs><path fill="#ff8e28" d="M 37.671875 0 C 25.207031 0 15.175781 9.964844 15.175781 22.347656 L 15.175781 47.175781 L 21.425781 47.175781 L 21.425781 22.347656 C 21.425781 13.40625 28.671875 6.207031 37.671875 6.207031 C 46.671875 6.207031 53.917969 13.40625 53.917969 22.347656 L 53.917969 47.175781 L 60.167969 47.175781 L 60.167969 22.347656 C 60.167969 9.964844 50.132812 0 37.671875 0 Z M 37.671875 0 " fill-opacity="1" fill-rule="evenodd"/><g clip-path="url(#bc922e9328)"><path fill="#ff8e28" d="M 11.40625 34.144531 L 63.933594 34.144531 C 64.019531 34.144531 64.09375 34.175781 64.15625 34.234375 C 64.214844 34.292969 64.246094 34.367188 64.246094 34.453125 L 64.246094 74.703125 C 64.246094 74.789062 64.214844 74.859375 64.15625 74.921875 C 64.09375 74.980469 64.019531 75.011719 63.933594 75.011719 L 11.40625 75.011719 C 11.320312 75.011719 11.25 74.980469 11.1875 74.921875 C 11.128906 74.859375 11.097656 74.789062 11.097656 74.703125 L 11.097656 34.453125 C 11.097656 34.367188 11.128906 34.292969 11.1875 34.234375 C 11.25 34.175781 11.320312 34.144531 11.40625 34.144531 " fill-opacity="1" fill-rule="evenodd"/></g></svg>