<svg xmlns="http://www.w3.org/2000/svg" xmlns:xlink="http://www.w3.org/1999/xlink" width="100" zoomAndPan="magnify" viewBox="0 0 75 74.999997" height="100" preserveAspectRatio="xMidYMid meet" version="1.0"><defs><clipPath id="7b7e4a5791"><path d="M 12.15625 33 L 63 33 L 63 75 L 12.15625 75 Z M 12.15625 33 " clip-rule="nonzero"/></clipPath></defs><path fill="#ff8e28" d="M 37.683594 30.707031 L 37.667969 30.707031 C 35.628906 30.710938 33.667969 30.320312 31.789062 29.535156 C 29.90625 28.753906 28.25 27.640625 26.820312 26.199219 C 25.378906 24.757812 24.265625 23.097656 23.484375 21.222656 C 22.703125 19.34375 22.308594 17.386719 22.304688 15.355469 C 22.285156 11.222656 24.074219 7.164062 27.214844 4.222656 C 30.171875 1.457031 34.011719 0 37.761719 0.230469 C 41.460938 0.03125 45.257812 1.5 48.183594 4.261719 C 51.308594 7.207031 53.085938 11.265625 53.066406 15.394531 C 53.0625 17.425781 52.667969 19.378906 51.882812 21.253906 C 51.097656 23.132812 49.984375 24.789062 48.539062 26.222656 C 47.105469 27.664062 45.445312 28.769531 43.566406 29.550781 C 41.683594 30.328125 39.722656 30.710938 37.683594 30.707031 Z M 37.683594 30.707031 " fill-opacity="1" fill-rule="nonzero"/><g clip-path="url(#7b7e4a5791)"><path fill="#ff8e28" d="M 37.605469 74.996094 C 34.1875 74.992188 30.8125 74.601562 27.484375 73.824219 C 24.15625 73.042969 20.960938 71.898438 17.902344 70.386719 C 13.933594 68.421875 12.15625 66.839844 12.300781 65.402344 L 14.199219 46.675781 C 14.207031 43.714844 15.3125 40.910156 17.394531 38.558594 C 19.414062 36.28125 22.277344 34.585938 25.464844 33.785156 C 26.882812 33.433594 28.324219 33.261719 29.789062 33.269531 L 46.125 33.269531 C 50.085938 33.511719 53.765625 35.011719 56.476562 37.496094 C 59.191406 39.980469 60.710938 43.25 60.71875 46.667969 L 62.976562 65.25 C 63.148438 66.691406 61.414062 68.285156 57.507812 70.257812 C 54.441406 71.804688 51.238281 72.976562 47.894531 73.777344 C 44.554688 74.574219 41.164062 74.980469 37.722656 74.992188 Z M 37.605469 74.996094 " fill-opacity="1" fill-rule="nonzero"/></g></svg>